<?xml version="1.0" encoding="UTF-8"?>
<svg width="512" height="512" viewBox="0 0 512 512" fill="none" xmlns="http://www.w3.org/2000/svg">
  <!-- Background -->
  <rect width="512" height="512" fill="#F8F9FA"/>
  
  <!-- Capsule -->
  <g transform="translate(96, 156) rotate(45, 160, 100)">
    <path d="M280 100C280 155.228 235.228 200 180 200H140C84.7715 200 40 155.228 40 100V100C40 44.7715 84.7715 0 140 0H180C235.228 0 280 44.7715 280 100V100Z" fill="#E2E8F0"/>
    <path d="M180 200H140C84.7715 200 40 155.228 40 100V100C40 44.7715 84.7715 0 140 0H180" stroke="#94A3B8" stroke-width="16"/>
    <path d="M180 0C235.228 0 280 44.7715 280 100V100C280 155.228 235.228 200 180 200" stroke="#94A3B8" stroke-width="16"/>
    <path d="M160 0V200" stroke="#94A3B8" stroke-width="8" stroke-dasharray="12 12"/>
  </g>
</svg> 